<svg width="8" height="8" viewBox="0 0 8 8" fill="none" xmlns="http://www.w3.org/2000/svg">
<path d="M5.38721 0.526403C5.36194 0.490041 5.33063 0.460397 5.29529 0.43936C5.25994 0.418323 5.22133 0.406354 5.18191 0.404217C5.1425 0.40208 5.10315 0.409821 5.06636 0.426948C5.02958 0.444074 4.99618 0.470209 4.96828 0.503688C4.94038 0.537166 4.9186 0.577253 4.90433 0.621392C4.89005 0.665532 4.8836 0.712756 4.88538 0.760053C4.88717 0.80735 4.89714 0.853683 4.91467 0.896098C4.9322 0.938513 4.95691 0.97608 4.98721 1.0064L7.02801 3.45824H0.282406C0.209587 3.46288 0.141024 3.50086 0.0908454 3.56435C0.0406666 3.62784 0.0126953 3.71202 0.0126953 3.79952C0.0126953 3.88703 0.0406666 3.9712 0.0908454 4.03469C0.141024 4.09819 0.209587 4.13617 0.282406 4.1408H7.02801L4.98401 6.58976C4.93256 6.65441 4.90385 6.74037 4.90385 6.82976C4.90385 6.91916 4.93256 7.00511 4.98401 7.06976C5.01024 7.10134 5.04141 7.1264 5.07573 7.1435C5.11005 7.16059 5.14685 7.16939 5.18401 7.16939C5.22117 7.16939 5.25796 7.16059 5.29228 7.1435C5.3266 7.1264 5.35777 7.10134 5.38401 7.06976L7.91201 4.03616C7.93891 4.00508 7.96032 3.96781 7.97494 3.92657C7.98956 3.88533 7.99709 3.84098 7.99709 3.79616C7.99709 3.75135 7.98956 3.70699 7.97494 3.66575C7.96032 3.62452 7.93891 3.58724 7.91201 3.55616L5.38721 0.526403Z" fill="white"/>
</svg>
