<svg width="21" height="20" viewBox="0 0 21 20" fill="none" xmlns="http://www.w3.org/2000/svg">
<path d="M19.3777 7.67708V4.58321C19.3759 2.51342 17.9457 0.83521 16.1818 0.833344H4.81813C3.05411 0.835427 1.62382 2.51356 1.62223 4.58321V7.67708C0.975907 8.00833 0.557771 8.75625 0.556885 9.58332V18.75C0.556885 18.8604 0.594171 18.9666 0.660755 19.0448C0.727339 19.1229 0.817894 19.1667 0.912005 19.1667H3.04269C3.13679 19.1667 3.22735 19.1229 3.29394 19.0448C3.36053 18.9667 3.39781 18.8604 3.39781 18.75V16.6666H17.6024V18.75C17.6024 18.8604 17.6396 18.9666 17.7062 19.0448C17.7728 19.1229 17.8634 19.1667 17.9575 19.1667H20.0882C20.1823 19.1667 20.2728 19.1229 20.3394 19.0448C20.406 18.9667 20.4433 18.8604 20.4433 18.75V9.58332C20.4424 8.75622 20.0242 8.00833 19.3779 7.67708H19.3777ZM3.04245 15.8333H1.26688V14.1667H19.7328V15.8333H3.04245ZM2.33223 7.50001V4.58321C2.334 2.97278 3.4455 1.66854 4.81813 1.66641H16.1818C17.5543 1.66849 18.6659 2.97265 18.6677 4.58321V7.50001H17.2472V6.25001C17.2463 5.56044 16.7696 5.00105 16.1819 5.00001H13.341C12.7533 5.00105 12.2765 5.56044 12.2756 6.25001V7.50001H8.7245V6.25001C8.72361 5.56044 8.24686 5.00105 7.65916 5.00001H4.81825C4.23054 5.00105 3.75379 5.56044 3.75291 6.25001V7.50001H2.33223ZM16.5368 7.50001H12.9856V6.25001C12.9856 6.0198 13.1445 5.83334 13.3407 5.83334H16.1817C16.3779 5.83334 16.5368 6.0198 16.5368 6.25001V7.50001ZM8.01404 7.50001H4.46291V6.25001C4.46291 6.0198 4.62182 5.83334 4.81802 5.83334H7.65893C7.85513 5.83334 8.01404 6.0198 8.01404 6.25001V7.50001ZM1.26677 9.58334C1.26766 8.89377 1.74441 8.33438 2.33211 8.33334H18.6673C19.255 8.33438 19.7318 8.89377 19.7327 9.58334V13.3332H1.26677V9.58334ZM2.68723 18.3332H1.26677V16.6665H2.68723V18.3332ZM19.7327 18.3332H18.3122V16.6665H19.7327V18.3332Z" fill="black"/>
</svg>
