<svg width="20" height="22" viewBox="0 0 20 22" fill="none" xmlns="http://www.w3.org/2000/svg">
<path fill-rule="evenodd" clip-rule="evenodd" d="M13.4465 12.6327C13.7992 12.0345 14.3793 11.6439 15.0238 11.5681C15.6683 11.4933 16.3102 11.7432 16.7685 12.247L19.3707 15.1072C19.7735 15.55 20 16.1511 20 16.7769C19.9991 17.4027 19.7735 18.0029 19.3698 18.4467L17.7665 20.2089C15.9806 22.1729 13.2146 22.5665 11.032 21.1673C6.6994 18.3857 3.26901 14.6182 0.754372 9.84716C-0.512299 7.45814 -0.156931 4.43155 1.61821 2.47362C2.17591 1.83604 2.75062 1.20433 3.21701 0.691711C3.61984 0.248942 4.16679 0 4.73524 0C5.30547 0 5.85243 0.248937 6.25525 0.691711L8.85675 3.55191C9.31597 4.05568 9.54246 4.76019 9.47442 5.46961C9.40639 6.17805 9.0501 6.81565 8.50583 7.20331L7.79236 7.71102C7.51755 7.90682 7.39847 8.28169 7.50233 8.62215C8.28741 11.1695 9.83776 12.8708 12.1572 13.7259C12.4642 13.8391 12.8017 13.7102 12.978 13.412C12.9816 13.4051 12.9852 13.3992 12.9897 13.3924C13.1365 13.1582 13.2913 12.8945 13.4462 12.6328L13.4465 12.6327Z" fill="#135846"/>
</svg>
