<svg width="13" height="12" viewBox="0 0 13 12" fill="none" xmlns="http://www.w3.org/2000/svg">
<path d="M6.49998 11.6667C3.44521 11.6667 0.960205 9.17456 0.960205 6.1111C0.960205 3.04763 3.44521 0.555542 6.49998 0.555542C9.55474 0.555542 12.0398 3.04763 12.0398 6.1111C12.0398 9.17456 9.55474 11.6667 6.49998 11.6667ZM6.49998 1.29628C3.85294 1.29628 1.69884 3.45652 1.69884 6.1111C1.69884 8.76567 3.85294 10.9259 6.49998 10.9259C9.14701 10.9259 11.3011 8.76567 11.3011 6.1111C11.3011 3.45652 9.14701 1.29628 6.49998 1.29628ZM6.02263 7.85462L9.34649 4.52129C9.49099 4.37638 9.49099 4.14259 9.34649 3.99767C9.20199 3.85276 8.96887 3.85276 8.82437 3.99767L5.7618 7.06896L4.54583 5.84953C4.40133 5.70461 4.1682 5.70461 4.0237 5.84953C3.8792 5.99444 3.8792 6.22823 4.0237 6.37314L5.50098 7.85462C5.57299 7.92684 5.66764 7.96296 5.76226 7.96296C5.8569 7.96296 5.95062 7.92684 6.02263 7.85462Z" fill="#5AD07A"/>
</svg>
