<svg width="15" height="15" viewBox="0 0 15 15" fill="none" xmlns="http://www.w3.org/2000/svg">
<path d="M14.4421 14C14.5922 14.0054 14.734 14.0605 14.838 14.1536C14.942 14.2468 15 14.3709 15 14.5C15 14.6291 14.942 14.7532 14.838 14.8464C14.734 14.9395 14.5922 14.9946 14.4421 15H0.5772C0.501094 14.9999 0.425763 14.9869 0.355527 14.9617C0.285291 14.9365 0.221533 14.8996 0.167909 14.8532C0.114285 14.8068 0.0718499 14.7517 0.0430376 14.6912C0.0142253 14.6307 -0.000397444 14.5658 8.21446e-06 14.5004C-0.000397341 14.435 0.014218 14.3701 0.0430178 14.3095C0.0718176 14.249 0.114237 14.1938 0.167847 14.1474C0.221458 14.1009 0.285208 14.0639 0.35545 14.0387C0.425691 14.0134 0.501045 14.0002 0.5772 14H14.4421Z" fill="black"/>
<path d="M9.11924 2.6104L11.8866 5.30025C11.9592 5.37112 12 5.46681 12 5.56652C12 5.66623 11.9592 5.76192 11.8866 5.83279L5.93366 11.6172C5.54173 11.9986 5.04531 12.2643 4.50254 12.3833L1.71333 12.9873C1.61378 13.0079 1.51038 13.0034 1.41321 12.974C1.31604 12.9446 1.22841 12.8915 1.15887 12.8197C1.08932 12.7479 1.04023 12.66 1.01639 12.5644C0.992542 12.4689 0.994753 12.369 1.0228 12.2745L1.81659 9.65717C1.95513 9.20161 2.20892 8.78648 2.5551 8.44915L8.56641 2.6104C8.63975 2.53971 8.73917 2.5 8.84282 2.5C8.94648 2.5 9.0459 2.53971 9.11924 2.6104Z" fill="black"/>
<path d="M13.5256 0.609455L13.8228 0.877688C14.2567 1.2704 14.5 1.80053 14.5 2.35297C14.5 2.9054 14.2567 3.43553 13.8228 3.82824L13.2002 4.38982C13.1214 4.46037 13.0145 4.5 12.903 4.5C12.7915 4.5 12.6846 4.46037 12.6057 4.38982L9.62293 1.7075C9.58396 1.67261 9.55304 1.63118 9.53195 1.58559C9.51086 1.54 9.5 1.49113 9.5 1.44178C9.5 1.39243 9.51086 1.34356 9.53195 1.29797C9.55304 1.25237 9.58396 1.21095 9.62293 1.17606L10.2534 0.609455C10.683 0.221831 11.2668 0.00266076 11.8767 2.40666e-05C12.4865 -0.00261263 13.0727 0.2115 13.5065 0.595391C13.5114 0.600327 13.5167 0.605022 13.5222 0.609455H13.5256Z" fill="black"/>
</svg>
