<svg width="33" height="41" viewBox="0 0 33 41" fill="none" xmlns="http://www.w3.org/2000/svg">
<path d="M26.9692 7.83585C26.9094 7.684 26.7594 7.59265 26.5789 7.59265H6.41924C6.23878 7.59265 6.08876 7.684 6.029 7.83585C5.96924 7.9877 5.96924 8.17041 6.08877 8.29141L14.5194 18.5864V26.4222C14.5194 26.5741 14.5791 26.7259 14.7291 26.7864L17.8194 28.7605C17.8792 28.7913 17.9694 28.821 18.0597 28.821C18.1194 28.821 18.2097 28.7901 18.2694 28.7605C18.4194 28.7 18.4792 28.5481 18.4792 28.3654L18.4804 18.5865L26.911 8.29153C27 8.16934 27.0305 7.98782 26.9696 7.83597L26.9692 7.83585Z" fill="#135846"/>
</svg>
