<svg width="20" height="23" viewBox="0 0 20 23" fill="none" xmlns="http://www.w3.org/2000/svg">
<path d="M5.13133 6.55278H14.8688C15.2684 6.55278 15.5926 6.95645 15.5926 7.45581C15.5926 7.95516 15.2684 8.36032 14.8688 8.36032L5.13133 8.35882C4.73173 8.35882 4.4075 7.95516 4.4075 7.4558C4.4075 6.95645 4.73173 6.55278 5.13133 6.55278ZM5.13133 10.8107H14.8688C15.2684 10.8107 15.5926 11.2159 15.5926 11.7152C15.5926 12.2131 15.2684 12.6182 14.8688 12.6182H5.13133C4.73173 12.6182 4.4075 12.2131 4.4075 11.7137C4.4075 11.2159 4.73173 10.8107 5.13133 10.8107ZM2.93594 0L2.93474 0.00149505C2.93474 9.56934e-08 2.93474 0 2.93355 0C1.31962 0 0.0107503 1.6296 0 3.64343V15.1151C0.0107675 17.1304 1.32082 18.76 2.93593 18.76H4.49124V22.0955C4.49124 22.4379 4.64557 22.7503 4.88964 22.9028C4.99253 22.9686 5.1038 23 5.21386 23C5.367 23 5.51775 22.9402 5.64455 22.8221L10.0317 18.7601H17.0641C18.6792 18.7601 19.9904 17.129 20 15.1152V3.64354C19.9904 1.62971 18.6792 0.000103661 17.0641 0.000103661L2.93594 0Z" fill="white"/>
</svg>
