<svg width="2" height="7" viewBox="0 0 2 7" fill="none" xmlns="http://www.w3.org/2000/svg">
<path d="M1.99995 6.06663C1.99995 6.44405 1.75621 6.78442 1.3828 6.9288C1.00906 7.07346 0.578756 6.99355 0.29285 6.72668C0.00692734 6.45981 -0.0786923 6.05819 0.0763003 5.70936C0.230981 5.36082 0.595651 5.13332 1.00002 5.13332C1.26532 5.13332 1.51968 5.23161 1.70717 5.40662C1.89465 5.58162 1.99995 5.81901 1.99995 6.06663ZM1 2.56667C0.595643 2.56667 0.230973 2.79417 0.0762841 3.1427C-0.0787085 3.49153 0.00691227 3.89317 0.292834 4.16002C0.578756 4.4269 1.00905 4.50681 1.38278 4.36214C1.7562 4.21777 1.99994 3.8774 1.99994 3.49998C1.99994 3.25236 1.89463 3.01494 1.70713 2.83995C1.51964 2.66495 1.2653 2.56667 1 2.56667ZM1 1.86668C1.40436 1.86668 1.76903 1.63918 1.92372 1.29064C2.07871 0.941813 1.99309 0.540178 1.70717 0.273322C1.42124 0.00645109 0.990952 -0.0734638 0.617218 0.0712013C0.243796 0.215575 6.3677e-05 0.555947 6.3677e-05 0.933368C6.3677e-05 1.18099 0.105371 1.41841 0.292866 1.5934C0.480361 1.76839 0.734701 1.86668 1 1.86668Z" fill="#6E6E6E"/>
</svg>
