<svg width="29" height="28" viewBox="0 0 29 28" fill="none" xmlns="http://www.w3.org/2000/svg">
<path d="M24.7509 16.8471L18.2826 14.1533C17.7729 13.9418 17.1405 14.0755 16.8357 14.4603L14.9552 16.8399C12.5835 15.5769 10.5691 13.9775 8.94512 12.0712L11.9379 10.6048C12.4281 10.3658 12.5991 9.86751 12.3282 9.46728L8.90307 4.3802C8.74036 4.13714 8.44068 3.97024 8.09568 3.92973C7.75275 3.88841 7.40261 3.97915 7.15648 4.1736L3.98678 6.66726C3.90542 6.73126 3.84157 6.8058 3.79008 6.88439C3.77772 6.90303 3.77155 6.92409 3.76022 6.94435C3.72108 7.01726 3.69534 7.09261 3.68195 7.17038C3.67783 7.19874 3.67268 7.22628 3.67165 7.25626C3.66856 7.35753 3.67886 7.45961 3.72211 7.55845C3.93117 8.03889 4.1598 8.50798 4.39871 8.9698C5.00117 10.1324 5.69424 11.2334 6.47485 12.2502C6.47485 12.251 6.47794 12.2518 6.47794 12.2534C8.57158 14.9684 11.346 17.1656 14.7197 18.782C16.4735 19.6294 18.494 20.3513 20.7227 20.9257C20.837 20.9549 20.9514 20.9687 21.0657 20.9687C21.1985 20.9687 21.3262 20.9444 21.4477 20.9087C21.4827 20.8982 21.5136 20.8828 21.5476 20.869C21.6341 20.835 21.7124 20.7945 21.7845 20.7442C21.802 20.7321 21.8247 20.728 21.8411 20.7151L25.0108 18.2214C25.258 18.027 25.3723 17.7531 25.3208 17.4817C25.2683 17.2111 25.0562 16.9754 24.7482 16.8465L24.7509 16.8471ZM7.73506 10.4911C7.43949 10.0609 7.15835 9.61771 6.89471 9.16075C6.84528 9.07568 6.801 8.98737 6.7526 8.90149C6.53736 8.51584 6.3345 8.1221 6.14088 7.72105C6.10587 7.64652 6.07086 7.57279 6.03584 7.49826L7.65678 6.22303L9.90489 9.56499L7.80713 10.5931C7.78345 10.5591 7.7577 10.5267 7.73504 10.4918L7.73506 10.4911ZM20.7808 19.1074C20.683 19.0807 20.5852 19.0531 20.4884 19.0256C19.9765 18.8797 19.4791 18.725 18.9951 18.5622C18.8705 18.5208 18.7418 18.4811 18.6192 18.4382C18.0394 18.2348 17.4823 18.0193 16.9488 17.7917C16.9087 17.7746 16.8706 17.756 16.8314 17.739L18.1609 16.0579L22.4089 17.8265L20.7808 19.1074Z" fill="black"/>
</svg>
