<svg width="19" height="19" viewBox="0 0 19 19" fill="none" xmlns="http://www.w3.org/2000/svg">
<path d="M1.92939 2.32871L0 2.83626L1.03063 6.75261L5.05768 6.30956L4.83884 4.32704L3.97654 4.42145C5.65622 2.59691 8.17286 1.69409 10.6681 2.08563C14.7579 2.73244 17.5579 6.58536 16.9117 10.6728C16.5984 12.6497 15.5313 14.3901 13.9067 15.5678C12.2822 16.7484 10.2958 17.2232 8.31867 16.9119C5.44946 16.4586 3.08039 14.3554 2.2836 11.5551L0.364503 12.1C1.37361 15.6452 4.37384 18.3073 8.00728 18.8804C8.51045 18.9598 9.01265 19 9.51208 19C11.5023 19 13.4374 18.3747 15.0805 17.1811C17.1352 15.6883 18.4858 13.488 18.8823 10.9841C19.7015 5.81054 16.157 0.93513 10.9804 0.115344C7.66879 -0.409955 4.33845 0.887417 2.21814 3.42703L1.92823 2.32594L1.92939 2.32871Z" fill="black"/>
</svg>
