<svg width="13" height="13" viewBox="0 0 13 13" fill="none" xmlns="http://www.w3.org/2000/svg">
<path d="M8.21743 8.91039C8.07493 8.91039 7.92868 8.85339 7.81993 8.74319L4.38493 5.26239C4.16368 5.03819 4.16368 4.67719 4.38493 4.45679C4.60618 4.23259 4.96243 4.23259 5.17993 4.45679L8.61493 7.93759C8.83618 8.16179 8.83618 8.52279 8.61493 8.74319C8.50618 8.85339 8.35993 8.91039 8.21743 8.91039Z" fill="#E23428"/>
<path d="M6.49999 12.3636C3.27124 12.3636 0.64624 9.7036 0.64624 6.4318C0.64624 3.16 3.27124 0.5 6.49999 0.5C9.72874 0.5 12.1249 3.16 12.1249 6.4318C12.1249 9.7036 9.72874 12.3636 6.49999 12.3636ZM6.49999 1.33179C3.89374 1.33179 1.34364 3.7908 1.34364 6.4318C1.34364 9.0728 4.08458 11.8352 6.5 11.5C9 11.942 11.6698 8.81537 11.4275 6.4318C11.5776 3.83179 9.09752 1.1406 6.49999 1.33179Z" fill="#E23428"/>
<path d="M4.78243 8.91039C4.63993 8.91039 4.49368 8.85339 4.38493 8.74319C4.16368 8.51899 4.16368 8.15799 4.38493 7.93759L7.81993 4.45679C8.04118 4.23259 8.39743 4.23259 8.61493 4.45679C8.83618 4.68099 8.83618 5.04199 8.61493 5.26239L5.17993 8.74319C5.07118 8.85339 4.92493 8.91039 4.78243 8.91039Z" fill="#E23428"/>
</svg>
