<svg width="19" height="19" viewBox="0 0 19 19" fill="none" xmlns="http://www.w3.org/2000/svg">
<path d="M7.51929 14.3505H5.03118V11.4109C5.03118 10.7845 5.27511 10.447 5.82146 10.3795H7.52909C7.79726 10.3574 8.06705 10.3934 8.32001 10.4851C8.57296 10.5769 8.8031 10.7223 8.99466 10.9112C9.18466 11.0987 9.33106 11.3258 9.42347 11.5762C9.51587 11.8266 9.55202 12.0943 9.52933 12.3603C9.52933 13.6133 8.76339 14.3602 7.52909 14.3602L7.51929 14.3505ZM5.02623 6.40359V5.63251C5.02623 4.95781 5.31895 4.63006 5.95328 4.59146H7.23142C8.32432 4.59146 8.98783 5.23736 8.98783 6.3265C8.98783 7.14578 8.53896 8.10963 7.28021 8.10963H5.03603L5.02623 6.40359ZM10.7052 9.34334L10.2563 9.09278L10.6466 8.75533C11.1051 8.36989 11.8662 7.49272 11.8662 5.9843C11.8661 3.67105 10.0512 2.17708 7.24607 2.17708H3.68456C2.84905 2.20538 2.18455 2.87899 2.17712 3.7048V16.8132H7.3095C10.4318 16.8132 12.442 15.1362 12.442 12.5337C12.442 11.1362 11.7931 9.93135 10.6954 9.3289" fill="#038F7A"/>
<path d="M15.0358 16.217C15.6809 16.217 16.204 15.6983 16.204 15.0585C16.204 14.4187 15.6809 13.9 15.0358 13.9C14.3906 13.9 13.8676 14.4187 13.8676 15.0585C13.8676 15.6983 14.3906 16.217 15.0358 16.217Z" fill="#038F7A"/>
</svg>
