<svg width="20" height="19" viewBox="0 0 20 19" fill="none" xmlns="http://www.w3.org/2000/svg">
<path fill-rule="evenodd" clip-rule="evenodd" d="M6.59997 7.60059H2.67018C2.09355 7.59648 1.53864 7.79091 1.12754 8.14107C0.71642 8.49123 0.48278 8.96847 0.478027 9.46779V16.5346C0.488697 17.574 1.46995 18.4093 2.67018 18.4006H6.59997C7.17655 18.4048 7.73152 18.2104 8.14265 17.8602C8.55378 17.5101 8.78741 17.0328 8.79212 16.5334V9.46779C8.78741 8.96847 8.55378 8.49123 8.14265 8.14107C7.73152 7.79091 7.17655 7.59648 6.59997 7.60059Z" fill="white"/>
<path fill-rule="evenodd" clip-rule="evenodd" d="M6.59997 0.400718H2.67018C1.49409 0.37247 0.513487 1.1739 0.478027 2.19232V3.40912C0.513487 4.42755 1.49409 5.22898 2.67018 5.20072H6.59997C7.776 5.22898 8.75665 4.42755 8.79212 3.40912V2.19232C8.75665 1.1739 7.776 0.37247 6.59997 0.400718Z" fill="white"/>
<path fill-rule="evenodd" clip-rule="evenodd" d="M13.7556 11.2008H17.684C18.2609 11.2053 18.8161 11.011 19.2275 10.6608C19.639 10.3106 19.8729 9.8332 19.8776 9.33364V2.26799C19.8729 1.76865 19.6392 1.29138 19.2281 0.941212C18.817 0.59104 18.262 0.396639 17.6854 0.400791H13.7556C13.179 0.396639 12.6241 0.59104 12.2129 0.941212C11.8018 1.29138 11.5682 1.76865 11.5635 2.26799V9.33364C11.5682 9.83296 11.8018 10.3102 12.2129 10.6604C12.6241 11.0105 13.179 11.2049 13.7556 11.2008Z" fill="white"/>
<path fill-rule="evenodd" clip-rule="evenodd" d="M13.7556 18.4007H17.684C18.8606 18.4296 19.8421 17.628 19.8776 16.6091V15.3923C19.8421 14.3739 18.8614 13.5725 17.6854 13.6007H13.7556C12.5796 13.5725 11.599 14.3739 11.5635 15.3923V16.6079C11.5981 17.6268 12.579 18.4289 13.7556 18.4007Z" fill="white"/>
</svg>
