<svg width="21" height="20" viewBox="0 0 21 20" fill="none" xmlns="http://www.w3.org/2000/svg">
<path d="M1.15625 7.10001H11.9375C12.1281 7.10001 12.3109 7.02889 12.4457 6.9023C12.5805 6.77572 12.6562 6.60403 12.6562 6.42501V1.02501C12.6562 0.845985 12.5805 0.674296 12.4457 0.547709C12.3109 0.421122 12.1281 0.350006 11.9375 0.350006H2.59375C2.02188 0.350006 1.47343 0.563354 1.06905 0.943115C0.664676 1.32288 0.4375 1.83794 0.4375 2.37501V6.42501C0.4375 6.60403 0.513225 6.77572 0.648017 6.9023C0.782809 7.02889 0.965626 7.10001 1.15625 7.10001ZM1.875 2.37501C1.875 2.19598 1.95073 2.0243 2.08552 1.89771C2.22031 1.77112 2.40313 1.70001 2.59375 1.70001H11.2188V5.75001H1.875V2.37501ZM19.8438 8.45001H1.15625C0.965626 8.45001 0.782809 8.52112 0.648017 8.64771C0.513225 8.7743 0.4375 8.94599 0.4375 9.12501V12.5C0.4375 12.679 0.513225 12.8507 0.648017 12.9773C0.782809 13.1039 0.965626 13.175 1.15625 13.175H19.8438C20.0344 13.175 20.2172 13.1039 20.352 12.9773C20.4868 12.8507 20.5625 12.679 20.5625 12.5V9.12501C20.5625 8.94599 20.4868 8.7743 20.352 8.64771C20.2172 8.52112 20.0344 8.45001 19.8438 8.45001ZM19.125 11.825H1.875V9.80001H19.125V11.825ZM6.1875 14.525H1.15625C0.965626 14.525 0.782809 14.5961 0.648017 14.7227C0.513225 14.8493 0.4375 15.021 0.4375 15.2V17.225C0.4375 17.7621 0.664676 18.2771 1.06905 18.6569C1.47343 19.0367 2.02188 19.25 2.59375 19.25H6.1875C6.37812 19.25 6.56094 19.1789 6.69573 19.0523C6.83052 18.9257 6.90625 18.754 6.90625 18.575V15.2C6.90625 15.021 6.83052 14.8493 6.69573 14.7227C6.56094 14.5961 6.37812 14.525 6.1875 14.525ZM5.46875 17.9H2.59375C2.40313 17.9 2.22031 17.8289 2.08552 17.7023C1.95073 17.5757 1.875 17.404 1.875 17.225V15.875H5.46875V17.9ZM19.8438 14.525H9.0625C8.87188 14.525 8.68906 14.5961 8.55427 14.7227C8.41948 14.8493 8.34375 15.021 8.34375 15.2V18.575C8.34375 18.754 8.41948 18.9257 8.55427 19.0523C8.68906 19.1789 8.87188 19.25 9.0625 19.25H18.4062C18.9781 19.25 19.5266 19.0367 19.9309 18.6569C20.3353 18.2771 20.5625 17.7621 20.5625 17.225V15.2C20.5625 15.021 20.4868 14.8493 20.352 14.7227C20.2172 14.5961 20.0344 14.525 19.8438 14.525ZM19.125 17.225C19.125 17.404 19.0493 17.5757 18.9145 17.7023C18.7797 17.8289 18.5969 17.9 18.4062 17.9H9.78125V15.875H19.125V17.225ZM18.4062 0.350006H14.8125C14.6219 0.350006 14.4391 0.421122 14.3043 0.547709C14.1695 0.674296 14.0938 0.845985 14.0938 1.02501V6.42501C14.0938 6.60403 14.1695 6.77572 14.3043 6.9023C14.4391 7.02889 14.6219 7.10001 14.8125 7.10001H19.8438C20.0344 7.10001 20.2172 7.02889 20.352 6.9023C20.4868 6.77572 20.5625 6.60403 20.5625 6.42501V2.37501C20.5625 1.83794 20.3353 1.32288 19.9309 0.943115C19.5266 0.563354 18.9781 0.350006 18.4062 0.350006ZM19.125 5.75001H15.5312V1.70001H18.4062C18.5969 1.70001 18.7797 1.77112 18.9145 1.89771C19.0493 2.0243 19.125 2.19598 19.125 2.37501V5.75001Z" fill="#799283"/>
</svg>
