<svg width="7" height="17" viewBox="0 0 7 17" fill="none" xmlns="http://www.w3.org/2000/svg">
<path d="M6.95429 13.1565C6.95429 13.0836 6.89385 13.0261 6.82034 13.0261H6.14732C6.07381 13.0261 6.01337 13.0844 6.01337 13.1565V13.7309H4.45581V14.6602H6.81875C6.831 14.6602 6.84407 14.6562 6.85632 14.6521C6.91104 14.6359 6.9527 14.5881 6.9527 14.5298V13.1549L6.95429 13.1565Z" fill="#799283"/>
<path d="M6.14963 16.7407H6.82265C6.89616 16.7407 6.9566 16.6808 6.9566 16.6079V15.2346C6.9566 15.1617 6.89616 15.1017 6.82265 15.1017H4.45972V16.0326H6.01728V16.6054C6.01728 16.6783 6.07772 16.7383 6.15123 16.7383L6.14963 16.7407Z" fill="#799283"/>
<path d="M4.0121 4.19673H4.77495C5.90207 4.19673 6.81766 3.29013 6.81766 2.17208C6.81766 1.05403 5.90207 0.14743 4.77495 0.14743H2.08625C0.959123 0.14743 0.045166 1.05565 0.045166 2.17208C0.045166 3.2877 0.959123 4.19673 2.08625 4.19673H2.85156V16.608C2.85156 16.6809 2.91037 16.7409 2.98143 16.7409H3.88232C3.95337 16.7409 4.01382 16.6809 4.01382 16.608V16.2636C4.01382 16.2636 4.01137 16.2596 4.01137 16.2572C4.01137 16.2547 4.01382 16.2547 4.01382 16.2531V14.8888C4.01382 14.8888 4.01137 14.8863 4.01137 14.8847C4.01137 14.8823 4.01382 14.8807 4.01382 14.8782V13.5179L4.01137 13.5139C4.01137 13.5115 4.01382 13.5098 4.01382 13.5074L4.01463 4.19668L4.0121 4.19673ZM2.08619 2.9774C1.63861 2.9774 1.27514 2.61686 1.27514 2.17289C1.27514 1.72891 1.63861 1.36838 2.08619 1.36838H4.77489C5.22247 1.36838 5.58593 1.72891 5.58593 2.17289C5.58593 2.61686 5.22247 2.9774 4.77489 2.9774H2.08619Z" fill="#799283"/>
</svg>
