<svg width="23" height="22" viewBox="0 0 23 22" fill="none" xmlns="http://www.w3.org/2000/svg">
<path fill-rule="evenodd" clip-rule="evenodd" d="M18.3795 12.805C17.2102 12.805 16.0408 13.2494 15.1485 14.1391C13.3639 15.9176 13.3639 18.8009 15.1485 20.5794C16.0408 21.4686 17.2102 21.9135 18.3795 21.9135C19.5494 21.9135 20.7187 21.4686 21.611 20.5794C23.3956 18.8009 23.3956 15.9176 21.611 14.1391C20.7187 13.2499 19.5494 12.805 18.3795 12.805ZM20.8719 19.8428C20.2064 20.5059 19.3209 20.8716 18.3795 20.8716C17.4386 20.8716 16.5531 20.5059 15.8877 19.8428C14.5134 18.4733 14.5134 16.2453 15.8877 14.8757C16.5531 14.2121 17.4386 13.8469 18.3795 13.8469C19.3209 13.8469 20.2064 14.2121 20.8719 14.8757C21.5373 15.5389 21.9043 16.4208 21.9043 17.359C21.9043 18.2972 21.5373 19.1797 20.8719 19.8428ZM19.8636 16.6698H18.8182V15.6279C18.8182 15.3404 18.584 15.107 18.2955 15.107C18.0069 15.107 17.7727 15.3404 17.7727 15.6279V17.1907C17.7727 17.4783 18.0069 17.7116 18.2955 17.7116H19.8636C20.1522 17.7116 20.3864 17.4783 20.3864 17.1907C20.3864 16.9031 20.1522 16.6698 19.8636 16.6698ZM12.5455 20.3163C12.5574 20.3163 12.0465 20.3159 12.0582 20.3151C12.3302 20.2969 12.5455 20.071 12.5455 19.7953C12.5455 19.5078 12.3113 19.2744 12.0227 19.2744H2.09091C1.51434 19.2744 1.04545 18.8071 1.04545 18.2326V7.29302H20.3864V10.9395C20.3864 11.2271 20.6205 11.4605 20.9091 11.4605C21.1976 11.4605 21.4318 11.2271 21.4318 10.9395V4.16744C21.4318 3.01827 20.494 2.08372 19.3409 2.08372H17.25V1.82326C17.25 0.81786 16.4293 0 15.4205 0C14.4116 0 13.5909 0.81786 13.5909 1.82326V2.08372H8.36364V1.82326C8.36364 0.81786 7.54295 0 6.53409 0C5.52523 0 4.70455 0.81786 4.70455 1.82326V2.08372H2.09091C0.937773 2.08372 0 3.01827 0 4.16744V18.2326C0 19.3817 0.937773 20.3163 2.09091 20.3163H12.5455ZM1.04545 4.16744C1.04545 3.59286 1.51434 3.12558 2.09091 3.12558H4.70455V3.38605C4.70455 4.39144 5.52523 5.2093 6.53409 5.2093C7.54295 5.2093 8.36364 4.39144 8.36364 3.38605V3.12558H13.5909V3.38605C13.5909 4.39144 14.4116 5.2093 15.4205 5.2093C16.4293 5.2093 17.25 4.39144 17.25 3.38605V3.12558H19.3409C19.9175 3.12558 20.3864 3.59286 20.3864 4.16744V6.25116H1.04545V4.16744ZM5.75 1.82326C5.75 1.39245 6.1018 1.04186 6.53409 1.04186C6.96639 1.04186 7.31818 1.39245 7.31818 1.82326V3.38605C7.31818 3.81686 6.96639 4.16744 6.53409 4.16744C6.1018 4.16744 5.75 3.81686 5.75 3.38605V1.82326ZM14.6364 1.82326C14.6364 1.39245 14.9882 1.04186 15.4205 1.04186C15.8527 1.04186 16.2045 1.39245 16.2045 1.82326V3.38605C16.2045 3.81686 15.8527 4.16744 15.4205 4.16744C14.9882 4.16744 14.6364 3.81686 14.6364 3.38605V1.82326ZM5.48864 8.33488C4.47977 8.33488 3.65909 9.15274 3.65909 10.1581C3.65909 11.1635 4.47977 11.9814 5.48864 11.9814C6.4975 11.9814 7.31818 11.1635 7.31818 10.1581C7.31818 9.15274 6.4975 8.33488 5.48864 8.33488ZM5.48864 10.9395C5.05634 10.9395 4.70455 10.5889 4.70455 10.1581C4.70455 9.72733 5.05634 9.37674 5.48864 9.37674C5.92093 9.37674 6.27273 9.72733 6.27273 10.1581C6.27273 10.5889 5.92093 10.9395 5.48864 10.9395ZM10.7159 8.33488C9.70705 8.33488 8.88636 9.15274 8.88636 10.1581C8.88636 11.1635 9.70705 11.9814 10.7159 11.9814C11.7248 11.9814 12.5455 11.1635 12.5455 10.1581C12.5455 9.15274 11.7248 8.33488 10.7159 8.33488ZM10.7159 10.9395C10.2836 10.9395 9.93182 10.5889 9.93182 10.1581C9.93182 9.72733 10.2836 9.37674 10.7159 9.37674C11.1482 9.37674 11.5 9.72733 11.5 10.1581C11.5 10.5889 11.1482 10.9395 10.7159 10.9395ZM14.1136 10.1581C14.1136 11.1635 14.9343 11.9814 15.9432 11.9814C16.952 11.9814 17.7727 11.1635 17.7727 10.1581C17.7727 9.15274 16.952 8.33488 15.9432 8.33488C14.9343 8.33488 14.1136 9.15274 14.1136 10.1581ZM16.7273 10.1581C16.7273 10.5889 16.3755 10.9395 15.9432 10.9395C15.5109 10.9395 15.1591 10.5889 15.1591 10.1581C15.1591 9.72733 15.5109 9.37674 15.9432 9.37674C16.3755 9.37674 16.7273 9.72733 16.7273 10.1581ZM10.7159 13.5442C9.70705 13.5442 8.88636 14.362 8.88636 15.3674C8.88636 16.3728 9.70705 17.1907 10.7159 17.1907C11.7248 17.1907 12.5455 16.3728 12.5455 15.3674C12.5455 14.362 11.7248 13.5442 10.7159 13.5442ZM10.7159 16.1488C10.2836 16.1488 9.93182 15.7983 9.93182 15.3674C9.93182 14.9366 10.2836 14.586 10.7159 14.586C11.1482 14.586 11.5 14.9366 11.5 15.3674C11.5 15.7983 11.1482 16.1488 10.7159 16.1488ZM5.48864 13.5442C4.47977 13.5442 3.65909 14.362 3.65909 15.3674C3.65909 16.3728 4.47977 17.1907 5.48864 17.1907C6.4975 17.1907 7.31818 16.3728 7.31818 15.3674C7.31818 14.362 6.4975 13.5442 5.48864 13.5442ZM5.48864 16.1488C5.05634 16.1488 4.70455 15.7983 4.70455 15.3674C4.70455 14.9366 5.05634 14.586 5.48864 14.586C5.92093 14.586 6.27273 14.9366 6.27273 15.3674C6.27273 15.7983 5.92093 16.1488 5.48864 16.1488Z" fill="#799283"/>
</svg>
