<svg width="16" height="19" viewBox="0 0 16 19" fill="none" xmlns="http://www.w3.org/2000/svg">
<path d="M16 17.8953C16 18.5022 15.4906 19 14.8604 19H1.13956C0.512283 19 0 18.504 0 17.8953C0 13.6248 3.58172 10.1628 8 10.1628C12.4183 10.1628 16 13.6248 16 17.8953ZM8 11.4884C4.41564 11.4884 1.49576 14.2382 1.3753 17.6744H14.6247C14.5042 14.2382 11.5844 11.4884 8 11.4884ZM8 9.27907C5.34903 9.27907 3.2 7.20188 3.2 4.63953C3.2 2.07719 5.34903 0 8 0C10.651 0 12.8 2.07719 12.8 4.63953C12.8 7.20188 10.651 9.27907 8 9.27907ZM8 7.95349C9.89355 7.95349 11.4286 6.46978 11.4286 4.63953C11.4286 2.80929 9.89355 1.32558 8 1.32558C6.10645 1.32558 4.57143 2.80929 4.57143 4.63953C4.57143 6.46978 6.10645 7.95349 8 7.95349Z" fill="#799283"/>
</svg>
