<svg width="21" height="22" viewBox="0 0 21 22" fill="none" xmlns="http://www.w3.org/2000/svg">
<path d="M12.7095 0.125038V0.126195H12.7084C11.0384 0.126195 9.6845 1.54981 9.6845 3.30545V4.77304L5.33717 4.77188C5.19186 4.77188 5.05316 4.83322 4.94968 4.94086C4.8473 5.0485 4.79005 5.19549 4.79005 5.34827V9.91894L3.39418 9.9201C1.72418 9.91894 0.369141 11.3426 0.369141 13.0994H0.370242C0.369141 14.8551 1.72429 16.2798 3.39415 16.2798H4.79002V20.8505C4.79002 21.0032 4.84727 21.1491 4.94965 21.2579C5.05313 21.3655 5.19183 21.4269 5.33715 21.4269H10.2394C10.5388 21.4234 10.781 21.1664 10.781 20.8505L10.7799 18.8065C10.7799 17.6861 11.6441 16.7776 12.7097 16.7776C13.7753 16.7776 14.6395 17.6861 14.6395 18.8065L14.6384 20.8505C14.6384 21.1641 14.8773 21.4188 15.1745 21.4257H20.0821C20.3848 21.4257 20.6303 21.1676 20.6303 20.8493L20.6292 15.6721C20.616 15.3666 20.376 15.127 20.0821 15.127L18.1391 15.1282C17.0724 15.1282 16.2082 14.2196 16.2082 13.0992C16.2082 11.9788 17.0724 11.0703 18.1391 11.0703L20.0821 11.0714C20.3837 11.0714 20.6292 10.8145 20.6303 10.4973V10.4985V5.34799C20.6303 5.0297 20.3848 4.77276 20.0821 4.77276H15.7348V3.30517C15.7348 1.54822 14.3807 0.124725 12.7097 0.124725V0.125883L12.7095 0.125038ZM12.7095 1.27665C13.7751 1.27665 14.6393 2.18522 14.6393 3.3056L14.6382 5.34842C14.6382 5.65745 14.8694 5.90975 15.1589 5.9248H19.5336V9.91887L18.1388 9.92003C16.4677 9.91888 15.1138 11.3425 15.1138 13.0993C15.1138 14.8551 16.4678 16.2797 18.1388 16.2797H19.5336V20.2738H15.7347V18.8062C15.7347 17.0504 14.3806 15.627 12.7097 15.627H12.7086C11.0386 15.627 9.68464 17.0506 9.68464 18.8062V20.275L5.88573 20.2738V15.68C5.87362 15.3722 5.63364 15.1268 5.33861 15.1268L3.39452 15.1279C2.32891 15.1279 1.46471 14.2194 1.46471 13.099C1.46471 11.9786 2.32888 11.07 3.39452 11.07L5.33861 11.0712C5.63914 11.0712 5.88353 10.82 5.88683 10.5041L5.88573 5.92421H10.2331C10.5358 5.92421 10.7813 5.66611 10.7813 5.34783L10.7802 3.30501C10.7802 2.18466 11.6443 1.27606 12.71 1.27606L12.7095 1.27665Z" fill="#799283"/>
</svg>
