<svg width="19" height="17" viewBox="0 0 19 17" fill="none" xmlns="http://www.w3.org/2000/svg">
<path d="M4.29167 5.375H14.7083H4.29167ZM4.29167 9.54166H14.7083H4.29167ZM18.875 16.8333L15.4122 15.1019C15.1497 14.9706 15.0184 14.905 14.8808 14.8587C14.7587 14.8177 14.633 14.788 14.5054 14.7701C14.3617 14.75 14.2149 14.75 13.9215 14.75H3.45833C2.29155 14.75 1.70817 14.75 1.26252 14.5229C0.87051 14.3232 0.551802 14.0045 0.352073 13.6125C0.125 13.1669 0.125 12.5834 0.125 11.4167V3.5C0.125 2.33322 0.125 1.74983 0.352073 1.30418C0.551802 0.912175 0.87051 0.593466 1.26252 0.393737C1.70817 0.166664 2.29156 0.166664 3.45833 0.166664H15.5417C16.7084 0.166664 17.2919 0.166664 17.7375 0.393737C18.1295 0.593466 18.4482 0.912175 18.6479 1.30418C18.875 1.74983 18.875 2.33323 18.875 3.5V16.8333Z" fill="#038F7A"/>
</svg>
