<svg width="18" height="18" viewBox="0 0 18 18" fill="none" xmlns="http://www.w3.org/2000/svg">
<g clip-path="url(#clip0_35_68)">
<path d="M1.80001 3.60001C1.20517 3.60001 0.720011 4.08516 0.720011 4.68001V9.65251C1.18689 9.24751 1.77751 8.91985 2.52001 8.66251V7.20001C2.52001 6.24235 4.15548 6.12001 5.58001 6.12001C7.00454 6.12001 8.64001 6.24235 8.64001 7.20001V7.92001C8.76095 7.9186 8.87626 7.92001 9.00001 7.92001C9.12376 7.92001 9.23907 7.9186 9.36001 7.92001V7.20001C9.36001 6.24235 10.9955 6.12001 12.42 6.12001C13.8445 6.12001 15.48 6.24235 15.48 7.20001V8.65126C16.2211 8.90719 16.8089 9.24188 17.28 9.65251V4.68001C17.28 4.08516 16.7949 3.60001 16.2 3.60001H1.80001ZM9.00001 8.64001C2.12626 8.64001 -0.0056139 9.91126 1.1096e-05 13.32H18C18.0056 9.88876 15.8738 8.64001 9.00001 8.64001ZM1.1096e-05 14.04V18H2.52001V16.56C2.52001 16.0425 2.72251 15.84 3.24001 15.84H14.76C15.2775 15.84 15.48 16.0425 15.48 16.56V18H18V14.04H1.1096e-05Z" fill="#038F7A"/>
</g>
<defs>
<clipPath id="clip0_35_68">
<rect width="18" height="18" fill="white"/>
</clipPath>
</defs>
</svg>
