<svg width="18" height="19" viewBox="0 0 18 19" fill="none" xmlns="http://www.w3.org/2000/svg">
<path d="M11.4899 9.88738L11.2128 9.41003C11.0335 9.52459 10.935 9.73884 10.9614 9.95734C10.9876 10.1757 11.1337 10.3577 11.3345 10.4219L11.4899 9.88738ZM6.51004 9.88738L6.66545 10.4219C6.86628 10.3577 7.01239 10.1757 7.03871 9.95734C7.06493 9.73884 6.96646 9.52459 6.7871 9.41003L6.51004 9.88738ZM13.2626 5.58824C13.2626 7.20658 12.443 8.62466 11.2128 9.41003L11.767 10.3647C13.3015 9.38499 14.3283 7.61263 14.3283 5.58824H13.2626ZM9.00003 1.11765C11.3542 1.11765 13.2626 3.1192 13.2626 5.58824H14.3283C14.3283 2.50194 11.9427 0 9.00003 0V1.11765ZM4.73741 5.58824C4.73741 3.1192 6.64583 1.11765 9.00003 1.11765V0C6.05729 0 3.67176 2.50194 3.67176 5.58824H4.73741ZM6.7871 9.41003C5.55697 8.62466 4.73741 7.20659 4.73741 5.58824H3.67176C3.67176 7.61263 4.69847 9.38499 6.233 10.3647L6.7871 9.41003ZM6.35465 9.35281C2.99067 10.4287 0.457344 13.5016 0.0117757 17.2567L1.06926 17.3947C1.46206 14.0844 3.69718 11.3712 6.66545 10.4219L6.35465 9.35281ZM0.0117757 17.2567C-0.105989 18.2492 0.677922 19 1.54047 19V17.8824C1.22594 17.8824 1.04166 17.6274 1.06926 17.3947L0.0117757 17.2567ZM1.54047 19H16.4596V17.8824H1.54047V19ZM16.4596 19C17.3221 19 18.106 18.2492 17.9882 17.2567L16.9307 17.3947C16.9583 17.6274 16.774 17.8824 16.4596 17.8824V19ZM17.9882 17.2567C17.5427 13.5016 15.0093 10.4287 11.6453 9.35281L11.3345 10.4219C14.3028 11.3712 16.5379 14.0844 16.9307 17.3947L17.9882 17.2567Z" fill="#038F7A"/>
</svg>
