<svg width="20" height="23" viewBox="0 0 20 23" fill="none" xmlns="http://www.w3.org/2000/svg">
<path d="M15.1446 5.77351C14.8885 5.50137 14.547 5.35506 14.1952 5.36676C13.8434 5.37846 13.5101 5.54721 13.2687 5.83589C13.0273 6.12458 12.8975 6.50955 12.9079 6.90611C12.9183 7.30267 13.068 7.67834 13.3241 7.95048L14.9596 9.68958H7.20463C6.85804 9.69848 6.52831 9.85993 6.28597 10.1394C6.04364 10.4189 5.90796 10.7941 5.90796 11.1849C5.90796 11.5757 6.04364 11.951 6.28597 12.2305C6.52831 12.51 6.85804 12.6714 7.20463 12.6803H14.9596L13.3241 14.4225C13.0682 14.6949 12.9187 15.0706 12.9086 15.4672C12.8985 15.8638 13.0285 16.2486 13.2701 16.5371C13.5117 16.8256 13.8451 16.9941 14.1968 17.0055C14.5486 17.0169 14.89 16.8703 15.1459 16.5979L19.2125 12.2703C19.3434 12.1304 19.4477 11.9618 19.5189 11.7749C19.5902 11.5881 19.6269 11.3868 19.6269 11.1834C19.6269 10.98 19.5902 10.7787 19.5189 10.5919C19.4477 10.405 19.3434 10.2364 19.2125 10.0965L15.1446 5.77351Z" fill="#038F7A"/>
<path d="M9.00795 19.0562H3.01776V3.31365H9.00795C9.35968 3.31365 9.697 3.15614 9.94571 2.87578C10.1944 2.59542 10.3341 2.21517 10.3341 1.81868C10.3341 1.42218 10.1944 1.04193 9.94571 0.761568C9.697 0.481206 9.35968 0.3237 9.00795 0.3237H1.69089C1.33909 0.32411 1.00181 0.481829 0.753048 0.762248C0.50429 1.04267 0.364378 1.42288 0.364014 1.81945V20.5512C0.36456 20.9476 0.504552 21.3277 0.753291 21.6079C1.00203 21.8882 1.33921 22.0458 1.69089 22.0462H9.00795C9.35968 22.0462 9.697 21.8887 9.94571 21.6083C10.1944 21.3279 10.3341 20.9477 10.3341 20.5512C10.3341 20.1547 10.1944 19.7745 9.94571 19.4941C9.697 19.2137 9.35968 19.0562 9.00795 19.0562Z" fill="#038F7A"/>
</svg>
