<svg width="55" height="55" viewBox="0 0 55 55" fill="none" xmlns="http://www.w3.org/2000/svg">
<circle cx="27.5" cy="27.5" r="27.5" fill="#02A18A"/>
<path d="M29.1199 13.2854C28.8903 12.522 28.6543 11.7601 28.4108 11C28.1676 11.7605 27.9317 12.5225 27.7021 13.2854C26.9382 13.2938 26.1747 13.3157 25.4108 13.3516C26.0462 13.7923 26.671 14.2427 27.2849 14.702C27.0641 15.4668 26.8501 16.2324 26.6428 17C27.2209 16.5127 27.8099 16.0338 28.4103 15.5638C29.0108 16.0338 29.6002 16.5127 30.1783 17C29.971 16.2324 29.757 15.4668 29.5366 14.702C30.1501 14.2427 30.775 13.7923 31.4108 13.3516C30.6477 13.3162 29.8838 13.2938 29.1199 13.2854Z" fill="#E23428"/>
<path d="M22.7412 13.13C22.44 12.4182 22.132 11.7077 21.8172 11C21.6459 11.7626 21.4813 12.5256 21.3239 13.2891C20.5603 13.3829 19.7983 13.4899 19.0372 13.6105C19.7154 13.9655 20.383 14.3305 21.0405 14.7059C20.892 15.4703 20.7502 16.2347 20.6157 17C21.1479 16.4636 21.692 15.9345 22.2479 15.4127C22.8927 15.7999 23.5273 16.1971 24.1509 16.6033C23.8712 15.8851 23.5848 15.1683 23.2912 14.4538C23.8619 13.9406 24.4437 13.4351 25.0372 12.9377C24.2719 12.9885 23.5061 13.0529 22.7412 13.13Z" fill="#E23428"/>
<path d="M16.4377 13.9802C16.0629 13.3175 15.6816 12.657 15.294 12C15.1959 12.7648 15.1051 13.5292 15.0207 14.2931C14.2578 14.4696 13.497 14.659 12.7384 14.8618C13.4598 15.1328 14.1713 15.4158 14.8733 15.7091C14.7979 16.473 14.7298 17.2369 14.6682 18C15.1539 17.4166 15.6521 16.8389 16.1627 16.2667C16.8523 16.5733 17.5326 16.8911 18.2025 17.2196C17.85 16.5479 17.4906 15.8789 17.1244 15.213C17.6499 14.6483 18.188 14.0899 18.7384 13.5381C17.9699 13.6723 17.2027 13.8193 16.4377 13.9802Z" fill="#E23428"/>
<path d="M35.5179 13.2893C35.3605 12.5257 35.196 11.7626 35.0251 11C34.7103 11.7082 34.402 12.4183 34.1004 13.1301C33.3356 13.0526 32.5699 12.9882 31.8038 12.9374C32.3973 13.4348 32.9794 13.9404 33.55 14.4536C33.2573 15.1682 32.9709 15.8851 32.6917 16.6033C33.3153 16.197 33.9493 15.8003 34.594 15.4126C35.1494 15.9345 35.6938 16.4641 36.226 17C36.0915 16.2346 35.9498 15.4702 35.8009 14.7057C36.4582 14.3303 37.1262 13.9653 37.8038 13.6103C37.0437 13.4901 36.2814 13.3831 35.5179 13.2893Z" fill="#E23428"/>
<path d="M44.1686 14.8625C43.4099 14.6597 42.6491 14.4698 41.8861 14.2937C41.8026 13.5293 41.7118 12.7649 41.6137 12C41.226 12.6579 40.8443 13.318 40.4695 13.9808C39.7044 13.8208 38.9375 13.6733 38.1686 13.5387C38.7186 14.0905 39.2567 14.649 39.7827 15.2137C39.4165 15.8801 39.0571 16.5487 38.7036 17.2204C39.3736 16.8923 40.0543 16.5745 40.7445 16.2674C41.2547 16.8393 41.7529 17.4165 42.2387 18C42.177 17.2369 42.1089 16.4738 42.0335 15.7103C42.7356 15.4165 43.4472 15.134 44.1686 14.8625Z" fill="#E23428"/>
<path d="M30.3964 37H25.6164C25.6164 37 25.6107 43.4877 25.6164 43.7739H30.3964C30.395 42.8744 30.3964 37.9969 30.3964 37Z" fill="white"/>
<path d="M43.0837 43.0998H41.9274V30.7134C41.9274 30.3205 41.5311 30 41.0453 30H36.8733C36.8733 30 36.8761 44.3038 36.8733 44.4552H43.0835C44.1843 44.4392 44.1857 43.1193 43.0835 43.1009L43.0837 43.0998Z" fill="white"/>
<path d="M14.0837 30.7133V43.0998H12.9274C12.4644 43.0998 12.0894 43.4065 12.0894 43.7775C12.0894 44.152 12.4629 44.4552 12.9274 44.4552H19.1376V30H14.9656C14.4798 30 14.0837 30.3204 14.0837 30.7133Z" fill="white"/>
<path d="M34.3153 21H21.6887C21.203 21 20.8066 21.3205 20.8066 21.7134V23.6639C20.8066 24.0567 21.2029 24.3772 21.6887 24.3772H23.0013V25.8453H21.6504C21.1874 25.8453 20.8124 26.152 20.8124 26.523V44.3521C21.1262 44.3406 23.5595 44.3601 23.9402 44.3521C23.9445 44.081 23.9402 37.3885 23.9402 37.3885C23.9402 36.7475 24.5879 36.2238 25.3805 36.2238H30.6293C31.4219 36.2238 32.0696 36.7475 32.0696 37.3885C32.0682 38.3672 32.0696 43.4663 32.0696 44.3521H35.1974L35.1989 26.523C35.1989 26.1531 34.8253 25.8453 34.3608 25.8453H33.0042V24.3772H34.3168C34.8025 24.3772 35.1989 24.0568 35.1989 23.6639V21.7134C35.1989 21.3205 34.8026 21 34.3168 21H34.3153ZM24.6775 24.3771H31.328V25.8451H24.6775V24.3771ZM26.034 34.3663H24.9957C23.8948 34.3525 23.8948 33.0258 24.9957 33.012H26.034C27.1349 33.0258 27.1349 34.3525 26.034 34.3663ZM26.034 31.7117H24.9957C23.8948 31.6979 23.8948 30.3711 24.9957 30.3573H26.034C27.1349 30.3711 27.1349 31.6979 26.034 31.7117ZM26.034 29.0559H24.9957C23.8948 29.0421 23.8948 27.7153 24.9957 27.7015H26.034C27.1349 27.7153 27.1349 29.0421 26.034 29.0559ZM31.0155 34.3665H29.9771C28.8763 34.3527 28.8763 33.0259 29.9771 33.0121H31.0155C32.1163 33.0259 32.1163 34.3527 31.0155 34.3665ZM31.0155 31.7118H29.9771C28.8763 31.698 28.8763 30.3713 29.9771 30.3575H31.0155C32.1163 30.3712 32.1163 31.698 31.0155 31.7118ZM31.0155 29.056H29.9771C28.8763 29.0422 28.8763 27.7155 29.9771 27.7017H31.0155C32.1163 27.7155 32.1163 29.0422 31.0155 29.056Z" fill="white"/>
</svg>
