<svg width="22" height="17" viewBox="0 0 22 17" fill="none" xmlns="http://www.w3.org/2000/svg">
<path d="M19.1251 0.453705H2.87509C1.65172 0.453705 0.65918 1.54239 0.65918 2.88426V14.2269C0.65918 15.5687 1.65172 16.6574 2.87509 16.6574H19.1251C20.3485 16.6574 21.341 15.5687 21.341 14.2269V2.88426C21.341 1.54239 20.3485 0.453705 19.1251 0.453705ZM18.5342 2.07408L11.4118 7.28259C11.1644 7.46488 10.8403 7.46488 10.5919 7.28259L3.46605 2.07408H18.5342ZM19.1251 15.037H2.87509C2.46698 15.037 2.13645 14.6745 2.13645 14.2269V3.0463L9.77123 8.62945C10.5154 9.1743 11.4849 9.1743 12.2289 8.62945L19.8637 3.0463V14.2269C19.8637 14.4416 19.7862 14.6481 19.6477 14.8C19.5092 14.952 19.3208 15.037 19.1251 15.037Z" fill="#038F7A"/>
</svg>
