<svg width="22" height="17" viewBox="0 0 22 17" fill="none" xmlns="http://www.w3.org/2000/svg">
<path d="M20.1001 0.464005C20.8181 0.464005 21.4001 1.01915 21.4001 1.704C21.4001 2.38885 20.8181 2.944 20.1001 2.944H1.9001C1.18213 2.944 0.600098 2.38885 0.600098 1.704C0.600098 1.01915 1.18213 0.464005 1.9001 0.464005H20.1001ZM20.1001 7.16C20.8181 7.16 21.4001 7.71514 21.4001 8.4C21.4001 9.08486 20.8181 9.64 20.1001 9.64H1.9001C1.18213 9.64 0.600098 9.08486 0.600098 8.4C0.600098 7.71514 1.18213 7.16 1.9001 7.16H20.1001ZM20.1001 13.856C20.8181 13.856 21.4001 14.4112 21.4001 15.096C21.4001 15.7809 20.8181 16.336 20.1001 16.336H1.9001C1.18213 16.336 0.600098 15.7809 0.600098 15.096C0.600098 14.4112 1.18213 13.856 1.9001 13.856H20.1001Z" fill="#135846"/>
</svg>
