<svg width="20" height="23" viewBox="0 0 20 23" fill="none" xmlns="http://www.w3.org/2000/svg">
<path d="M18.8248 17.2035L17.4952 14.7649C17.425 14.6393 17.3881 14.4945 17.3863 14.3476V9.93503C17.3835 7.92779 16.703 5.99143 15.4751 4.50277C14.2471 3.01405 12.5593 2.07727 10.7386 1.87466V1.02294C10.7386 0.575301 10.408 0.212753 9.99993 0.212753C9.59182 0.212753 9.26129 0.575301 9.26129 1.02294V1.87466C7.44056 2.0772 5.75271 3.01397 4.5248 4.50277C3.29682 5.99149 2.61635 7.92784 2.61359 9.93503V14.3476C2.61359 14.4945 2.57665 14.6383 2.50833 14.7649L1.1751 17.2025C0.900868 17.7028 0.893494 18.3266 1.15571 18.835C1.41792 19.3434 1.90912 19.6574 2.44186 19.6574H6.38062C6.60867 20.8878 7.34361 21.933 8.37125 22.4869C9.39797 23.0409 10.6019 23.0409 11.6286 22.4869C12.6562 21.933 13.3911 20.8878 13.6192 19.6574H17.5589C18.0917 19.6574 18.5828 19.3434 18.8451 18.835C19.1073 18.3277 19.0999 17.7038 18.8257 17.2035H18.8248ZM9.99989 21.2778C9.06089 21.2768 8.22439 20.6276 7.91048 19.6574H12.0894C11.7755 20.6276 10.9389 21.2768 9.99989 21.2778ZM2.44169 18.037L3.77123 15.5974C3.97898 15.2206 4.08978 14.7882 4.0907 14.3476V9.93505C4.0907 7.61995 5.21712 5.47994 7.04525 4.32157C8.87338 3.16403 11.1263 3.16403 12.9543 4.32157C14.7825 5.48015 15.9089 7.62013 15.9089 9.93505V14.3476C15.9089 14.7882 16.0178 15.2206 16.2246 15.5974L17.5579 18.037H2.44169Z" fill="#038F7A"/>
</svg>
